<svg width="25" height="25" viewBox="0 0 25 25" fill="none" xmlns="http://www.w3.org/2000/svg">
<path d="M7.29169 5.20833H21.875V7.29167H7.29169V5.20833ZM7.29169 13.5417V11.4583H21.875V13.5417H7.29169ZM4.16669 4.6875C4.58109 4.6875 4.97852 4.85212 5.27154 5.14515C5.56457 5.43817 5.72919 5.8356 5.72919 6.25C5.72919 6.6644 5.56457 7.06183 5.27154 7.35485C4.97852 7.64788 4.58109 7.8125 4.16669 7.8125C3.75229 7.8125 3.35486 7.64788 3.06183 7.35485C2.76881 7.06183 2.60419 6.6644 2.60419 6.25C2.60419 5.8356 2.76881 5.43817 3.06183 5.14515C3.35486 4.85212 3.75229 4.6875 4.16669 4.6875ZM4.16669 10.9375C4.58109 10.9375 4.97852 11.1021 5.27154 11.3951C5.56457 11.6882 5.72919 12.0856 5.72919 12.5C5.72919 12.9144 5.56457 13.3118 5.27154 13.6049C4.97852 13.8979 4.58109 14.0625 4.16669 14.0625C3.75229 14.0625 3.35486 13.8979 3.06183 13.6049C2.76881 13.3118 2.60419 12.9144 2.60419 12.5C2.60419 12.0856 2.76881 11.6882 3.06183 11.3951C3.35486 11.1021 3.75229 10.9375 4.16669 10.9375ZM7.29169 19.7917V17.7083H21.875V19.7917H7.29169ZM4.16669 17.1875C4.58109 17.1875 4.97852 17.3521 5.27154 17.6451C5.56457 17.9382 5.72919 18.3356 5.72919 18.75C5.72919 19.1644 5.56457 19.5618 5.27154 19.8549C4.97852 20.1479 4.58109 20.3125 4.16669 20.3125C3.75229 20.3125 3.35486 20.1479 3.06183 19.8549C2.76881 19.5618 2.60419 19.1644 2.60419 18.75C2.60419 18.3356 2.76881 17.9382 3.06183 17.6451C3.35486 17.3521 3.75229 17.1875 4.16669 17.1875Z" fill="#E9ECEF"/>
</svg>
