<svg width="25" height="25" viewBox="0 0 25 25" fill="none" xmlns="http://www.w3.org/2000/svg">
<path d="M19.7917 3.125H5.20833C4.0625 3.125 3.125 4.0625 3.125 5.20833V19.7917C3.125 20.9375 4.0625 21.875 5.20833 21.875H19.7917C20.9375 21.875 21.875 20.9375 21.875 19.7917V5.20833C21.875 4.0625 20.9375 3.125 19.7917 3.125ZM19.7917 5.20833V14.5833H16.0833C15.7083 14.5833 15.375 14.7812 15.1875 15.1042C14.6458 16.0417 13.6562 16.6667 12.5 16.6667C11.3438 16.6667 10.3542 16.0417 9.8125 15.1042C9.72161 14.9467 9.5911 14.8158 9.43394 14.7245C9.27678 14.6331 9.09845 14.5844 8.91667 14.5833H5.20833V5.20833H19.7917Z" fill="#E9ECEF"/>
</svg>
